<svg width="634" height="378" viewBox="0 0 634 378" fill="none" xmlns="http://www.w3.org/2000/svg">
<g clip-path="url(#clip0)">
<path d="M158.308 338.902C158.308 338.902 108.659 228.586 206.512 228.586C258.214 228.586 236.915 198.32 272.066 163.29C307.217 128.263 430.145 100.276 456.31 167.917C482.474 235.558 417.813 286.913 480.295 278.104C555.379 267.518 585.041 338.902 585.041 338.902H158.308V338.902Z" fill="#001AA8"/>
<path d="M560.418 324.906C555.785 321.374 546.318 323.759 539.33 326.308C538.286 324.778 537.02 323.201 535.489 321.659C550.542 311.542 571.332 289.966 560.313 288.14C550.734 286.552 537.808 305.974 530.899 317.796C523.724 312.761 512.732 309.058 495.948 310.342C452.388 313.674 418.36 284.358 393.278 294.135C373.334 301.909 355.056 306.265 337.431 304.776C338.19 291.34 338.355 264.961 328.244 262.224C317.978 259.446 328.048 289.404 333.643 304.362C332.33 304.186 331.021 303.978 329.713 303.734C326.088 296.278 320.118 286.522 313.56 286.189C307.385 285.876 315.006 294.647 322.507 302.077C300.951 297.356 275.381 315.638 274.957 337.253H544.07C544.07 337.253 543.594 334.097 541.481 329.937C551.881 329.727 565.45 328.743 560.418 324.906Z" fill="#271C6C"/>
<path d="M333.658 320.549H262.73V337.261H333.658V320.549Z" fill="#6D89CF"/>
<path d="M311.789 320.548H240.86V337.259H311.789V320.548Z" fill="#3662C1"/>
<path d="M361.56 337.256H414.374V260.233H361.56V337.256Z" fill="#382E91"/>
<path d="M345.276 337.256H398.09V260.233H345.276V337.256Z" fill="#534FBB"/>
<path d="M398.089 260.234L414.373 271.799V260.234H398.089Z" fill="#271C6C"/>
<path d="M235.056 277.295C235.056 277.295 225.179 284.959 223.253 284.494C221.328 284.029 230.472 276.222 230.472 276.222C227.03 274.496 216.333 275.577 216.333 275.577C216.333 275.577 212.77 287.565 211.013 286.62C209.256 285.675 214.687 276.174 214.687 276.174C210.854 275.932 206.153 278.902 206.153 278.902C199.719 284.203 206.575 292.551 206.575 292.551C206.575 292.551 205.255 296.677 201.192 300.436C201.192 300.436 195.388 304.914 194.986 312.916L196.038 313.014C196.038 313.014 197.708 305.562 200.742 302.037C200.86 301.91 201.032 301.725 201.244 301.504C201.739 301.026 202.085 300.667 202.318 300.402C203.829 298.888 205.916 296.959 206.921 296.771C206.921 296.771 206.871 296.579 206.878 296.244C206.892 296.412 206.905 296.586 206.921 296.771C207.265 300.99 215.111 304.675 219.936 305.433C224.762 306.191 223.271 304.122 221.608 301.052C219.945 297.983 214.683 296.611 213.482 295.197C212.281 293.783 214.763 293.78 217.672 295.167C220.579 296.552 220.978 300.247 225.642 302.578C230.307 304.908 237.326 296.832 237.326 296.832C233.609 296.635 228.3 292.423 228.492 291.134C228.684 289.845 237.504 293.358 239.011 293.526C240.518 293.695 243.949 291.738 244.479 285.401C245.012 279.062 235.056 277.295 235.056 277.295Z" fill="#93B3F4"/>
<path d="M182.601 282.054C182.601 282.054 193.509 275.679 188.419 267.029C188.419 267.029 184.347 261.718 179.984 260.351C179.984 260.351 182.311 273.25 179.984 273.555C177.656 273.859 178.384 258.985 178.384 258.985C178.384 258.985 166.892 253.218 162.384 253.674C162.384 253.674 169.512 266.271 167.184 265.966C164.856 265.662 156.857 252.914 156.857 252.914C156.857 252.914 145.076 250.637 143.184 257.923C141.293 265.207 144.347 268.851 146.094 269.304C147.84 269.76 159.038 269.608 158.748 271.126C158.457 272.644 150.894 275.072 146.675 273.706C146.675 273.706 151.33 285.696 157.439 285.087C163.548 284.481 165.438 280.534 169.22 280.23C173.002 279.926 175.765 280.99 173.874 282.052C171.982 283.114 165.583 282.4 162.529 285.11C159.475 287.82 157.002 289.489 162.674 290.703C168.347 291.916 178.527 291.158 180.565 286.605C182.601 282.054 182.601 282.054 182.601 282.054Z" fill="#93B3F4"/>
<path d="M185.51 293.131C182.456 287.212 182.601 282.052 182.601 282.052C179.11 270.518 148.564 260.198 148.564 260.198C187.4 276.588 180.563 286.605 180.563 286.605C181.61 287.242 183.179 290.279 184.268 292.61C184.422 293.007 184.668 293.555 185.034 294.299C185.182 294.636 185.3 294.912 185.382 295.105C187.381 300.325 186.322 309.34 186.322 309.34L187.534 309.68C190.222 300.595 185.51 293.131 185.51 293.131Z" fill="#3E4DCE"/>
<path d="M199.958 273.262C199.958 273.262 185.577 264.859 192.289 253.457C192.289 253.457 197.658 246.454 203.409 244.655C203.409 244.655 200.34 261.659 203.409 262.06C206.478 262.46 205.517 242.855 205.517 242.855C205.517 242.855 220.665 235.254 226.608 235.853C226.608 235.853 217.212 252.457 220.281 252.058C223.349 251.657 233.894 234.853 233.894 234.853C233.894 234.853 249.425 231.852 251.917 241.455C254.41 251.058 250.383 255.859 248.082 256.458C245.782 257.057 231.019 256.859 231.401 258.858C231.783 260.858 241.755 264.059 247.314 262.258C247.314 262.258 241.179 278.062 233.125 277.263C225.072 276.463 222.579 271.262 217.594 270.862C212.609 270.461 208.966 271.861 211.459 273.262C213.951 274.662 222.387 273.721 226.414 277.293C230.441 280.865 233.7 283.065 226.222 284.666C218.745 286.267 205.324 285.267 202.639 279.264C199.958 273.262 199.958 273.262 199.958 273.262Z" fill="#BED2FA"/>
<path d="M244.824 244.454C244.824 244.454 204.559 258.059 199.958 273.262C199.958 273.262 200.15 280.064 196.123 287.866C196.123 287.866 189.914 297.703 193.453 309.68L195.051 309.232C195.051 309.232 193.654 297.35 196.29 290.468C196.397 290.215 196.553 289.852 196.748 289.408C197.23 288.425 197.553 287.701 197.757 287.18C199.194 284.109 201.262 280.104 202.641 279.264C202.641 279.264 193.631 266.061 244.824 244.454Z" fill="#3E4DCE"/>
<path d="M199.473 335.651C215.029 335.651 227.641 322.493 227.641 306.261H171.305C171.305 322.493 183.916 335.651 199.473 335.651Z" fill="#0024F1"/>
<path d="M206.403 335.426C205.258 335.575 204.09 335.651 202.904 335.651C187.347 335.651 174.736 322.493 174.736 306.261H181.733C181.735 321.257 192.499 333.628 206.403 335.426Z" fill="#0024F1"/>
<path d="M224.555 333.63H174.39C172.47 333.63 170.915 335.254 170.915 337.257H228.03C228.03 335.254 226.474 333.63 224.555 333.63Z" fill="#271C6C"/>
<path d="M227.85 306.261H170.81C170.571 306.261 170.379 306.463 170.379 306.713C170.379 306.962 170.573 307.163 170.81 307.163H227.85C228.089 307.163 228.281 306.961 228.281 306.713C228.281 306.463 228.088 306.261 227.85 306.261Z" fill="#271C6C"/>
<path d="M445.211 151.495C444.394 151.366 441.934 153.738 441.934 153.738C436.681 154.371 428.999 155.827 426.235 156.382C424.275 156.775 419.003 154.901 413.853 152.748C407.729 150.187 401.778 147.231 401.778 147.231C398.38 147.051 394.522 153.519 401.413 157.632C402.465 158.259 406.418 159.331 410.968 160.31C410.968 160.31 410.968 160.31 410.97 160.31C417.248 161.659 424.666 162.831 427.191 162.419C430.124 161.941 438.426 158.771 443.365 156.345C443.365 156.345 443.371 156.343 443.378 156.339C443.396 156.329 443.414 156.32 443.432 156.312C443.729 156.167 444.938 155.606 445.744 155.657C446.669 155.713 448.729 153.948 448.792 153.476C448.858 153.005 446.028 151.625 445.211 151.495Z" fill="#EA8888"/>
<path d="M438.797 232.984L435.904 233.598C435.904 233.598 422.666 218.08 420.624 211.55C419.53 208.061 412.544 206.552 405.24 204.581C398.884 202.867 392.288 200.801 389.138 196.77C382.369 188.108 393.39 177.467 393.39 177.467C393.39 177.467 405.108 184.734 415.217 192.241C422.284 197.488 428.564 202.852 429.511 205.934C431.81 213.43 436.684 227.679 438.797 232.984Z" fill="#0B0754"/>
<path d="M434.926 238.104H436.553C437.098 238.015 437.5 237.851 438.06 237.773C438.909 237.658 439.299 238.021 439.377 238.104C439.387 238.115 439.391 238.121 439.391 238.121H446.302C446.476 237.862 446.309 237.261 446.146 236.821C446.035 236.52 445.796 236.293 445.499 236.205C444.766 235.984 443.322 235.785 441.998 234.536C441.253 233.835 438.402 231.954 438.402 231.954L438.388 231.95C438.324 231.952 438.027 232.047 436.73 233.19C436.06 233.78 434.917 232.359 434.917 232.359C434.917 232.359 434.703 232.544 434.542 232.888C434.413 233.16 434.319 233.534 434.393 233.995C434.497 234.645 434.163 235.853 433.899 236.67C433.738 237.165 433.602 237.516 433.602 237.516C433.602 237.516 433.526 237.921 434.926 238.104Z" fill="#060632"/>
<path d="M415.219 192.241L405.24 204.583C398.884 202.869 392.288 200.803 389.138 196.772C382.369 188.11 393.39 177.469 393.39 177.469C393.39 177.469 405.11 184.732 415.219 192.241Z" fill="#060632"/>
<path d="M406.151 185.795C406.151 185.795 405.347 188.441 404.037 192.423C402.382 197.458 399.915 204.627 397.239 211.276C396.65 212.737 396.053 214.173 395.451 215.556C393.227 220.673 390.948 225.059 388.943 227.288C385.34 231.294 376.58 257.053 376.58 257.053L374.397 256.424C374.397 256.424 371.354 234.428 382.134 221.912C382.249 221.778 382.34 221.625 382.353 221.446C382.355 221.444 382.355 221.442 382.355 221.44C382.498 219.588 383.01 211.291 384.128 202.884C384.401 200.822 384.713 198.754 385.063 196.772C385.084 196.645 385.108 196.52 385.13 196.394C386.769 187.231 388.34 183.156 390.366 181.107L405.271 185.534L406.151 185.795Z" fill="#0B0754"/>
<path d="M374.154 260.217H375.781C376.326 260.128 376.728 259.964 377.288 259.886C378.138 259.769 378.527 260.132 378.605 260.217C378.616 260.228 378.619 260.234 378.619 260.234H385.532C385.706 259.975 385.539 259.376 385.374 258.934C385.264 258.633 385.025 258.407 384.728 258.316C383.996 258.095 382.55 257.898 381.226 256.647C380.482 255.946 377.63 254.065 377.63 254.065L377.616 254.061C377.552 254.061 377.255 254.158 375.958 255.299C375.288 255.889 374.145 254.466 374.145 254.466C374.145 254.466 373.931 254.651 373.77 254.997C373.642 255.269 373.547 255.643 373.622 256.105C373.725 256.755 373.392 257.962 373.127 258.779C372.966 259.274 372.83 259.624 372.83 259.624C372.83 259.624 372.754 260.034 374.154 260.217Z" fill="#060632"/>
<path d="M377.351 155.88C377.351 155.88 374.857 162.245 371.982 168.441C369.564 173.649 366.876 178.739 365.173 179.824C362.771 181.355 356.152 185.676 351.859 188.896C351.859 188.896 348.508 188.87 347.988 189.539C347.468 190.208 346.267 193.215 346.617 193.519C346.968 193.823 349.631 193.682 350.278 192.99C350.843 192.387 352.098 191.952 352.412 191.852C352.432 191.846 352.45 191.841 352.47 191.833C352.477 191.831 352.482 191.829 352.482 191.829C357.699 190.155 365.883 186.666 368.36 184.959C370.492 183.491 375.221 177.412 378.993 172.005C381.726 168.085 383.958 164.515 384.331 163.313C386.774 155.432 379.746 153.36 377.351 155.88Z" fill="#FC9290"/>
<path d="M390.392 130.918C390.097 130.469 389.796 130.07 389.499 129.714C389.868 129.722 390.269 129.684 390.6 129.542C391.475 129.164 391.875 126.265 391.743 125.405C391.611 124.545 390.396 122.058 388.897 121.81C387.398 121.563 385.849 123.3 385.849 123.3C386.126 122.045 388.662 121.323 388.662 121.323C383.436 122.328 383.702 125.965 383.738 126.301C378.954 124.523 376.147 133.922 376.147 133.922L388.537 141.54C388.537 141.54 388.57 139.465 389.752 139.597C391.595 139.805 393.131 135.082 390.392 130.918Z" fill="#0B0754"/>
<path d="M391.182 150.64C388.338 152.039 384.566 150.024 384.586 150.004C384.831 149.748 384.744 148.987 384.521 147.993C384.298 146.955 383.769 145.534 382.795 143.84C382.592 143.479 382.389 143.12 382.144 142.738L382.469 142.612L387.992 140.302C387.992 140.302 388.885 141.977 389.82 143.502C390.611 144.774 391.444 145.917 391.81 145.876C391.832 145.851 395.488 148.478 391.182 150.64Z" fill="#FC9290"/>
<path d="M387.993 140.871C387.85 142.926 387.182 146.634 384.521 147.991C384.298 146.953 383.769 145.532 382.795 143.838L387.993 140.871Z" fill="#EA8888"/>
<path d="M382.472 146.178C382.472 146.178 389.664 143.22 387.829 138.577C385.996 133.933 385.688 130.423 381.02 132.115C376.351 133.806 376.165 135.959 376.415 137.666C376.665 139.37 380.554 146.827 382.472 146.178Z" fill="#FC9290"/>
<path d="M385.153 137.516C388.473 137.027 389.442 135.626 389.442 135.626C389.442 135.626 386.385 134.712 384.588 131.586C384.588 131.586 380.856 130.272 378.09 132.468C377.922 132.697 377.801 132.965 377.741 133.283C377.107 133.065 376.154 133.122 375.603 134.991C374.777 137.8 377.717 140.866 377.717 140.866C378.429 140.656 377.627 138.153 377.514 136.817C377.431 135.834 377.94 134.576 378.214 133.98C378.565 134.456 382.068 139.049 386.345 139.233C386.345 139.233 384.086 138.414 382.03 136.815C383.052 137.339 384.14 137.666 385.153 137.516Z" fill="#0B0754"/>
<path d="M404.872 160.208C404.811 159.983 404.745 159.75 404.677 159.512C405.744 157.382 406.269 155.464 406.492 153.838C406.979 150.406 406.147 148.288 406.147 148.288C406.147 148.288 401.159 145.528 398.956 145.177C398.947 145.173 398.938 145.169 398.929 145.167C398.904 145.163 398.873 145.161 398.84 145.158C396.618 144.838 391.803 145.863 391.803 145.863C391.803 145.863 392.732 148.442 390.111 150.16C387.492 151.88 384.695 149.72 384.695 149.72C384.61 149.779 384.521 149.845 384.429 149.913C384.429 149.913 377.536 154.659 376.917 155.742C376.297 156.827 373.647 162.194 373.647 162.194C373.647 162.194 374.487 166.702 383.798 167.078C384.563 169.015 385.149 170.903 385.34 172.479C386.079 178.597 385.22 183.424 386.082 186.995C386.945 190.565 402.479 188.529 405.292 187.843C408.106 187.155 407.473 184.022 407.689 180.977C407.964 177.153 405.789 163.583 404.872 160.208Z" fill="#3662C1"/>
<path d="M406.494 153.838C406.271 155.469 405.742 157.397 404.666 159.537C404.421 158.414 403.427 154.303 401.824 152.438C401.822 152.44 404.523 152.695 406.494 153.838Z" fill="#3E4DCE"/>
<path d="M343.238 193.937C343.238 193.937 346.133 190.278 346.756 189.845C347.379 189.412 350.113 188.654 350.27 188.807C350.426 188.96 350.433 189.181 350.095 189.493C349.756 189.805 348.463 190.593 348.647 190.682C348.832 190.771 352.732 188.745 353.296 189.425C353.857 190.106 352.977 192.92 351.473 194.267C349.97 195.615 345.485 196.191 345.202 196.379C342.809 197.976 343.238 193.937 343.238 193.937Z" fill="#EA8888"/>
<path d="M292.283 185.486C292.283 185.486 296.44 190.633 301.735 188.48C301.735 188.48 302.874 185.606 302.891 183.487C302.893 183.226 302.896 182.973 302.9 182.733C302.929 180.346 303.005 179.008 303.005 179.008C303.005 179.008 303.003 179.008 302.999 179.006C302.759 178.902 294.906 175.537 294.912 175.815C295.047 182.27 292.283 185.486 292.283 185.486Z" fill="#FC9290"/>
<path d="M295.701 177.356C296.458 178.82 299.058 181.686 302.9 182.733C302.929 180.346 303.005 179.008 303.005 179.008C303.005 179.008 303.003 179.008 302.999 179.006C302.782 178.945 295.475 176.925 295.701 177.356Z" fill="#EA8888"/>
<path d="M304.65 178.76C304.65 178.76 295.817 180.926 294.609 175.167C293.401 169.408 291.446 165.808 297.034 164.182C302.623 162.555 304.182 164.502 305.034 166.322C305.887 168.142 306.916 178.047 304.65 178.76Z" fill="#FC9290"/>
<path d="M294.911 176.736C294.79 176.817 292.89 177.426 289.291 169.945C288.725 168.771 288.341 166.231 289.658 163.986C290.975 161.741 295.645 159.977 299.525 159.208C303.405 158.441 304.336 160.718 305.249 163.007C306.207 165.409 308.977 167.388 308.977 167.388C305.631 169.338 301.603 166.549 300.206 167.008C298.81 167.467 298.317 169.762 298.212 170.499C298.107 171.234 297.946 171.846 296.19 171.189C294.435 170.531 295.397 173.784 295.678 174.405C295.679 174.405 295.919 176.063 294.911 176.736Z" fill="#9E332E"/>
<path d="M272.16 320.55H266.812C265.691 320.55 264.445 319.363 264.133 317.189C263.822 315.016 261.518 313.829 261.018 312.05C260.518 310.272 263.074 307.768 263.074 307.768L263.501 307.187L263.945 306.583L268.182 307.635C268.182 307.635 268.287 308.701 268.352 310.06C268.397 311.041 268.423 312.175 268.37 313.169C268.245 315.541 268.999 318.094 270.991 318.558C272.986 319.019 272.16 320.55 272.16 320.55Z" fill="#060632"/>
<path d="M309.39 320.603H295.214C295.078 320.574 294.975 320.542 294.913 320.508C293.968 320 294.263 316.106 294.377 314.904C294.399 314.681 294.415 314.551 294.415 314.551C294.415 314.551 299.4 310.268 300.087 313.547C300.108 313.649 300.134 313.749 300.159 313.85V313.852C301.025 316.921 304.892 318.314 307.128 318.703C308.834 319 309.276 320.07 309.39 320.603Z" fill="#060632"/>
<path d="M306.534 235.071C306.534 235.071 305.776 244.925 304.887 256.771C303.677 272.863 302.222 292.63 302.079 296.375C301.831 302.876 300.833 313.279 300.833 313.279C300.833 313.279 298.467 315.749 293.73 314.707C293.73 314.707 289.51 299.86 288.303 284.15C288.285 283.893 288.265 283.634 288.247 283.373C287.126 267.38 285.382 233.706 285.382 233.706L306.534 235.071Z" fill="#534FBB"/>
<path d="M306.534 235.071C306.534 235.071 305.776 244.925 304.887 256.772L288.303 284.15C288.285 283.893 288.265 283.634 288.247 283.373C287.126 267.38 285.382 233.706 285.382 233.706L306.534 235.071Z" fill="#534FBB"/>
<path d="M303.076 236.24C303.076 236.24 289.43 271.931 280.458 288.703C271.486 305.475 268.682 310.157 268.682 310.157C268.682 310.157 263.541 308.011 263.074 306.549C263.074 306.549 266.505 274.167 272.513 266.274C275.908 261.814 279.897 248.429 280.083 243.749C280.27 239.068 281.299 229.805 281.299 229.805L303.076 236.24Z" fill="#534FBB"/>
<path d="M271.834 230.296C271.834 230.296 271.481 234.753 271.222 235.439C270.963 236.123 269.238 238.246 269.037 238.216C268.836 238.185 268.718 238.019 268.82 237.586C268.921 237.155 269.515 235.819 269.327 235.855C269.138 235.891 267.164 239.648 266.378 239.437C265.592 239.225 264.822 236.552 265.291 234.666C265.758 232.778 268.936 229.814 269.057 229.51C270.084 226.93 271.834 230.296 271.834 230.296Z" fill="#EA8888"/>
<path d="M270.37 231.429C271.881 231.935 272.122 231.82 272.122 231.82C272.122 231.82 279.473 217.857 280.217 216.577C280.962 215.299 295.824 200.918 295.824 200.918L292.004 186.057C292.004 186.057 275.1 208.898 273.274 212.175C270.258 217.592 268.49 230.17 268.49 230.17C268.49 230.17 269.184 231.03 270.37 231.429Z" fill="#060632"/>
<path d="M309.414 206.753C309.361 209.805 309.191 213.235 308.961 216.721C308.946 216.927 308.934 217.135 308.919 217.341C308.773 219.499 308.613 221.663 308.432 223.772C308.359 224.619 308.282 225.454 308.2 226.276L308.187 226.388C308.18 226.696 308.146 227.029 308.113 227.333C307.369 235.235 306.586 241.48 306.441 241.576C306.267 241.697 306.073 241.757 305.86 241.731C303.873 241.47 297.947 241.941 293.095 240.839C289.001 239.937 285.476 238.229 281.739 235.927C281.242 235.621 280.112 234.812 280.204 234.205C280.295 233.54 280.462 232.578 280.674 231.37C281.409 227.167 282.681 219.936 283.114 211.472C283.197 209.896 283.322 208.338 283.479 206.808C283.896 202.82 284.563 199.034 285.458 195.668C287.12 189.418 289.566 184.632 292.633 182.759C293.033 182.525 295.19 183.956 297.17 185.282C299 186.505 300.925 186.843 302.797 186.673L304.445 188.575C306.441 190.996 308.566 194.218 309.146 198.8C309.189 199.138 309.227 199.497 309.258 199.881C309.419 201.744 309.459 204.107 309.414 206.753Z" fill="#120E59"/>
<path d="M309.414 206.753C309.361 209.805 309.191 213.235 308.961 216.721C308.946 216.927 308.934 217.134 308.919 217.341C297.572 209.93 295.824 196.371 295.824 196.371C301.405 196.626 305.84 197.966 309.258 199.881C309.419 201.744 309.459 204.107 309.414 206.753Z" fill="#060632"/>
<path d="M344.961 194.301C344.376 192.651 343.467 192.757 343.467 192.757C343.467 192.757 326.597 197.144 325.083 197.331C323.568 197.52 306.916 190.548 306.916 190.548C306.916 190.548 300.362 187.479 297.292 190.281C294.623 192.718 294.502 195.802 295.127 198.391C295.872 201.478 298.375 203.759 301.402 204.161C308.195 205.065 321.75 206.764 324.592 206.352C330.915 205.433 345.242 196.804 345.242 196.804C345.242 196.804 345.42 195.6 344.961 194.301Z" fill="#120E59"/>
<path d="M511.307 226.564C511.307 226.564 513.651 228.83 513.192 230.44C512.734 232.05 510.62 233.124 510.334 235.093C510.048 237.061 508.905 238.134 507.876 238.134C506.847 238.134 502.97 238.134 502.97 238.134C502.97 238.134 502.213 236.749 504.043 236.331C505.872 235.914 506.562 233.6 506.448 231.453C506.334 229.306 506.62 226.443 506.62 226.443L510.508 225.488L511.307 226.564Z" fill="#0B0754"/>
<path d="M482.097 237.868C481.86 237.993 481.023 238.078 479.878 238.136H468.785C468.823 237.792 469.08 236.564 470.895 236.259C472.944 235.912 476.494 234.668 477.286 231.933C477.313 231.846 477.335 231.756 477.355 231.665C477.983 228.743 482.555 232.559 482.555 232.559C482.555 232.559 482.568 232.676 482.588 232.874C482.693 233.95 482.963 237.416 482.097 237.868Z" fill="#0B0754"/>
<path d="M471.435 159.697C471.435 159.697 472.129 168.739 472.946 179.607C474.056 194.371 475.39 212.506 475.522 215.94C475.75 221.905 476.665 231.447 476.665 231.447C476.665 231.447 478.837 233.715 483.182 232.759C483.182 232.759 487.055 219.138 488.16 204.725C488.176 204.489 488.194 204.25 488.211 204.012C489.24 189.34 490.839 158.444 490.839 158.444L471.435 159.697Z" fill="#6D89CF"/>
<path d="M471.435 159.697C471.435 159.697 472.129 168.739 472.946 179.607L488.16 204.725C488.176 204.489 488.194 204.25 488.211 204.012C489.24 189.34 490.839 158.444 490.839 158.444L471.435 159.697Z" fill="#3662C1"/>
<path d="M474.607 160.771C474.607 160.771 487.126 193.515 495.357 208.904C503.588 224.292 506.16 228.586 506.16 228.586C506.16 228.586 510.877 226.619 511.305 225.277C511.305 225.277 508.156 195.57 502.644 188.327C499.529 184.235 495.871 171.954 495.699 167.66C495.527 163.366 494.585 154.867 494.585 154.867L474.607 160.771Z" fill="#6D89CF"/>
<path d="M435.995 143.012C435.995 143.012 432.598 142.202 432.028 142.243C431.455 142.285 429.457 143.156 429.43 143.326C429.403 143.494 429.499 143.632 429.843 143.657C430.189 143.682 431.326 143.528 431.254 143.672C431.182 143.816 427.907 144.487 427.87 145.175C427.834 145.863 429.629 147.14 431.145 147.225C432.661 147.31 435.641 145.473 435.899 145.451C438.063 145.254 435.995 143.012 435.995 143.012Z" fill="#FC9290"/>
<path d="M434.54 143.912C434.053 142.294 434.167 142.035 434.167 142.035C434.167 142.035 447.932 134.269 449.193 133.481C450.453 132.693 464.678 116.898 464.678 116.898L479.248 121.083C479.248 121.083 456.701 139.004 453.469 140.934C448.129 144.122 435.763 145.927 435.763 145.927C435.763 145.927 434.922 145.182 434.54 143.912Z" fill="#534FBB"/>
<path d="M469.093 109.221C469.093 109.221 463.985 118.597 458.993 119.822C458.993 119.822 459.201 116.673 460.416 114.517C459.918 113.905 459.482 113.341 459.103 112.839C457.846 111.158 457.248 110.13 457.248 110.13L458.942 105.377L460.092 102.153C460.645 103.2 461.253 104.092 461.889 104.853C465.16 108.779 469.093 109.221 469.093 109.221Z" fill="#FC9290"/>
<path d="M461.889 104.853C461.889 104.853 462.497 109.552 459.103 112.839C457.846 111.158 457.248 110.13 457.248 110.13L458.942 105.377C460.759 104.8 461.889 104.853 461.889 104.853Z" fill="#EA8888"/>
<path d="M455.902 110.824C455.902 110.824 463.534 107.719 461.608 102.79C459.683 97.8604 459.369 94.1409 454.415 95.9137C449.461 97.6865 449.254 99.9678 449.513 101.776C449.774 103.585 453.866 111.504 455.902 110.824Z" fill="#FC9290"/>
<path d="M495.326 157.342C492.246 161.962 469.229 168.131 469.502 164.935C469.607 163.712 469.747 161.553 469.499 158.63C469.441 157.945 469.359 157.22 469.254 156.45C468.669 152.251 467.28 146.849 464.182 140.597C463.95 140.128 463.708 139.656 463.458 139.178C462.182 136.757 461.095 134.198 460.266 131.695C458.67 126.887 458.029 122.285 458.833 119.278C458.837 119.263 458.84 119.25 458.846 119.236C463.657 116.915 465.523 107.911 465.523 107.911C465.523 107.911 481.94 110.986 491.132 133.816C491.132 133.818 498.005 153.322 495.326 157.342Z" fill="#433AA8"/>
<path d="M469.499 158.63C469.441 157.945 469.359 157.22 469.254 156.45C468.669 152.251 467.28 146.849 464.182 140.597C464.715 137.233 465.448 134.436 466.254 133.175C469.528 128.055 471.435 127.256 471.435 127.256C471.435 127.256 476.346 148.86 469.499 158.63Z" fill="#534FBB"/>
<path d="M443.622 153.489C443.622 153.489 439.081 153.738 438.378 154.003C437.676 154.267 435.464 156.108 435.487 156.331C435.513 156.552 435.678 156.69 436.12 156.592C436.562 156.494 437.936 155.878 437.897 156.086C437.855 156.294 433.973 158.357 434.163 159.234C434.353 160.111 437.043 161.047 438.978 160.59C440.911 160.132 444.025 156.713 444.338 156.588C446.99 155.532 443.622 153.489 443.622 153.489Z" fill="#FC9290"/>
<path d="M442.766 155.286C441.856 153.753 442.512 153.054 442.512 153.054C442.512 153.054 456.54 141.593 457.639 140.436C458.739 139.28 463.833 120.845 463.833 120.845C463.833 120.845 465.586 113.383 469.691 112.561C473.258 111.846 475.725 113.687 477.337 115.846C479.259 118.418 479.449 121.967 477.853 124.772C474.272 131.07 467.046 143.57 464.936 145.704C460.241 150.457 444.528 157.099 444.528 157.099C444.528 157.099 443.481 156.49 442.766 155.286Z" fill="#433AA8"/>
<path d="M462.702 93.6344C462.757 93.5247 462.911 93.4057 463.291 93.2847C463.291 93.2847 462.936 93.16 462.523 93.2545C462.309 92.7083 461.788 91.7803 460.811 91.7727C460.811 91.7727 461.371 91.9239 461.577 92.5098C460.239 91.6253 457.757 91.3682 451.562 93.521C443.398 96.3578 447.477 101.304 448.714 101.699C449.952 102.096 452.23 99.5519 454.279 99.2042C456.328 98.8564 457.436 101.835 458.217 102.081C458.998 102.328 458.554 101.65 459.373 100.971C460.192 100.293 460.661 101.89 460.643 103.011C460.625 104.131 462.22 105.195 462.22 105.195C462.22 105.195 462.22 105.195 463.155 103.406C464.09 101.616 463.836 95.1161 462.941 93.9462C462.862 93.8441 462.784 93.7383 462.702 93.6344Z" fill="#0B0754"/>
<path d="M333.658 320.36V330.001L311.787 320.36H333.658Z" fill="#BED2FA"/>
<path d="M520.824 238.134H448.495V337.255H520.824V238.134Z" fill="#6D89CF"/>
<path d="M498.521 238.134H426.193V337.255H498.521V238.134Z" fill="#3662C1"/>
<path d="M520.824 238.134V252.958L498.523 238.134H520.824Z" fill="#BED2FA"/>
<path d="M168.822 147.718C153.72 140.525 144.659 125.626 159.761 115.864C174.862 106.102 166.808 105.588 174.862 98.3948C182.916 91.2017 210.098 91.2017 219.159 98.3948C228.22 105.588 224.193 115.864 219.159 127.167C214.126 138.47 199.024 147.718 199.024 147.718C199.024 147.718 183.923 154.912 168.822 147.718Z" fill="#1A54F8"/>
<path d="M619.233 27.7938C612.458 43.0875 597.814 52.5553 587.639 37.7286C577.465 22.9019 577.174 30.967 569.761 23.1142C562.349 15.2614 561.6 -11.9107 568.541 -21.1661C575.482 -30.4216 585.865 -26.6791 597.302 -21.9586C608.74 -17.2382 618.401 -2.39731 618.401 -2.39731C618.401 -2.39731 626.007 12.5001 619.233 27.7938Z" fill="#1A54F8"/>
<path opacity="0.4" d="M72.176 325.494C76.4566 325.494 75.9282 325.494 79.9267 317.747C83.9253 310 76.4566 310 72.176 310C67.8954 310 62.4253 315.494 64.4253 317.747C66.4253 320 67.8954 325.494 72.176 325.494Z" fill="#1A54F8"/>
<path opacity="0.4" d="M102.561 9.45951C113.365 9.45951 141.675 -29.644 141.675 -29.644C150.349 -61.144 93.6228 -42.6442 102.561 -29.644C111.5 -16.6438 83 -20.8904 83 -10.0923C83 0.705883 91.7579 9.45951 102.561 9.45951Z" fill="black"/>
<path opacity="0.4" d="M72.176 325.494C76.4566 325.494 75.9282 325.494 79.9267 317.747C83.9253 310 76.4566 310 72.176 310C67.8954 310 62.4253 315.494 64.4253 317.747C66.4253 320 67.8954 325.494 72.176 325.494Z" fill="#1A54F8"/>
<path opacity="0.4" d="M72.176 325.494C76.4566 325.494 75.9282 325.494 79.9267 317.747C83.9253 310 76.4566 310 72.176 310C67.8954 310 62.4253 315.494 64.4253 317.747C66.4253 320 67.8954 325.494 72.176 325.494Z" fill="#1A54F8"/>
<path opacity="0.4" d="M72.176 325.494C76.4566 325.494 75.9282 325.494 79.9267 317.747C83.9253 310 76.4566 310 72.176 310C67.8954 310 62.4253 315.494 64.4253 317.747C66.4253 320 67.8954 325.494 72.176 325.494Z" fill="#1A54F8"/>
<path opacity="0.4" d="M37.176 102.494C41.4566 102.494 40.9282 102.494 44.9267 94.7469C48.9253 87 41.4566 87 37.176 87C32.8954 87 27.4253 92.4939 29.4253 94.7469C31.4253 97 32.8954 102.494 37.176 102.494Z" fill="#1A54F8"/>
<path opacity="0.4" d="M495.176 26.4939C499.457 26.4939 498.928 26.4939 502.927 18.7469C506.925 11 499.457 11 495.176 11C490.895 11 485.425 16.4939 487.425 18.7469C489.425 21 490.895 26.4939 495.176 26.4939Z" fill="#1A54F8"/>
</g>
<defs>
<clipPath id="clip0">
<rect width="634" height="378" fill="white"/>
</clipPath>
</defs>
</svg>
